<svg width="31" height="30" viewBox="0 0 31 30" fill="none" xmlns="http://www.w3.org/2000/svg">
<path d="M14.2002 13.5V7.5H17.2002V13.5H23.2002V16.5H17.2002V22.5H14.2002V16.5H8.2002V13.5H14.2002ZM15.7002 30C7.41592 30 0.700195 23.2842 0.700195 15C0.700195 6.71572 7.41592 0 15.7002 0C23.9844 0 30.7002 6.71572 30.7002 15C30.7002 23.2842 23.9844 30 15.7002 30ZM15.7002 27C22.3276 27 27.7002 21.6275 27.7002 15C27.7002 8.37258 22.3276 3 15.7002 3C9.07277 3 3.7002 8.37258 3.7002 15C3.7002 21.6275 9.07277 27 15.7002 27Z" fill="#C2C2C2"/>
</svg>
