<svg width="18" height="19" viewBox="0 0 18 19" fill="none" xmlns="http://www.w3.org/2000/svg">
<g id="Frame">
<path id="Vector" d="M8.25 8.35181V5.35181H9.75V8.35181H12.75V9.85181H9.75V12.8518H8.25V9.85181H5.25V8.35181H8.25ZM9 16.6018C4.85786 16.6018 1.5 13.2439 1.5 9.10181C1.5 4.95967 4.85786 1.60181 9 1.60181C13.1421 1.60181 16.5 4.95967 16.5 9.10181C16.5 13.2439 13.1421 16.6018 9 16.6018ZM9 15.1018C12.3137 15.1018 15 12.4155 15 9.10181C15 5.7881 12.3137 3.10181 9 3.10181C5.68629 3.10181 3 5.7881 3 9.10181C3 12.4155 5.68629 15.1018 9 15.1018Z" fill="currentColor"/>
</g>
</svg>
