<svg width="8" height="6" viewBox="0 0 8 6" fill="none" xmlns="http://www.w3.org/2000/svg">
<path d="M2.2966 5.03885L0.557447 1.96215C0.354737 1.37786 0.991828 0.967628 1.3743 1.46489L3.06975 4.50279C3.22328 5.0638 2.74082 5.38478 2.2966 5.03885Z" fill="#05408C"/>
<path d="M5.75044 5.04315C5.41768 5.41014 4.73797 5.01987 4.97565 4.50542L6.67165 1.46863C7.01096 0.991328 7.68028 1.34889 7.48686 1.9088L5.75044 5.04371V5.04315Z" fill="#05408C"/>
<path d="M3.84269 0.0910741C4.23226 -0.0264505 4.47103 0.232991 4.5131 0.604967C4.58031 1.20201 4.58905 3.0059 4.50819 3.58743C4.41858 4.23271 3.61047 4.24435 3.53179 3.53698C3.46131 2.90168 3.46021 1.23916 3.53179 0.604967C3.55201 0.426463 3.65855 0.14651 3.84269 0.0910741Z" fill="#05408C"/>
</svg>
