<svg width="16" height="15" viewBox="0 0 16 15" fill="none" xmlns="http://www.w3.org/2000/svg">
<path d="M11.2651 2.90783C13.2749 2.61205 15.1706 3.75921 14.2186 5.92325C15.2907 6.84053 15.2915 8.24079 14.2186 9.15807C14.7739 10.2049 14.3818 11.5572 13.2258 11.9511C13.7554 13.1312 13.0633 14.5187 11.7562 14.7149C9.9671 14.5854 7.93543 14.8879 6.17652 14.7142C5.02204 14.5996 4.30049 13.6868 3.33716 13.4929C2.52042 13.3281 1.55483 13.5423 0.744878 13.4464C0.317237 13.3955 0.140438 13.2285 0.101905 12.813C-0.150448 10.0581 0.300615 6.93113 0.101905 4.13661C0.133638 3.12947 1.79736 3.57875 2.55517 3.50387C4.31938 3.3309 4.43498 1.4222 5.78288 0.948214C6.40318 0.729564 8.6872 0.749033 9.42084 0.811183C10.5481 0.907779 11.3868 1.75767 11.2651 2.90708V2.90783ZM9.98372 6.4197V2.49599C9.98372 2.46978 9.66942 2.15453 9.56742 2.16127L6.19163 2.17475C5.37034 2.93927 4.96915 3.94866 3.89174 4.4541C3.70587 4.54096 3.09992 4.77459 2.9337 4.77459H1.38785V12.1735H3.46183C4.24382 12.1735 5.63554 13.4442 6.25207 13.4442H8.47641C8.13188 12.7298 8.42956 12.0731 8.82925 11.4644C8.31623 10.8197 8.18703 10.1038 8.51418 9.33329C8.56858 9.20599 8.83151 8.89075 8.83151 8.84806C8.83151 8.78891 8.39027 8.16066 8.3457 7.78252C8.30943 7.47776 8.43938 7.09213 8.38952 6.9214C8.36836 6.84877 8.03063 6.4841 7.93619 6.31936C7.5365 5.62298 6.9638 3.23954 8.36156 3.50612C9.01964 3.63117 8.80054 4.66676 8.86022 5.10481C8.93276 5.63646 9.42915 6.30289 9.98448 6.41895L9.98372 6.4197ZM11.3414 5.59752H12.5103C13.0006 5.59752 13.2885 5.01345 13.0943 4.56941C13.0528 4.47507 12.8133 4.25192 12.7362 4.25192H11.3414V5.59677V5.59752ZM9.75781 7.7653C9.76462 7.99218 10.0517 8.17789 10.2519 8.20934C10.7529 8.28796 12.5163 8.27748 13.0392 8.21533C13.6428 8.14344 13.9307 7.57959 13.5635 7.09437C13.2326 6.65707 11.9149 6.95884 11.3838 6.86599C11.3074 7.98395 10.6985 7.93378 9.75781 7.76605V7.7653ZM12.9765 10.6557C13.358 10.3097 13.1381 9.61034 12.6448 9.49952C12.3274 9.42838 10.6025 9.43512 10.2527 9.48829C9.47146 9.6066 9.46617 10.6669 10.19 10.8114C10.5851 10.89 12.0796 10.8788 12.5118 10.8309C12.6516 10.8152 12.8752 10.747 12.9765 10.6557ZM11.921 13.2712C12.2783 12.947 12.1023 12.2933 11.6308 12.1488C11.2734 12.0395 10.2565 12.0447 9.9467 12.2484C9.52737 12.5239 9.59462 13.2675 10.0563 13.4105C10.3728 13.5086 11.6731 13.4959 11.9217 13.2705L11.921 13.2712Z" fill="#05408C"/>
</svg>
