<svg width="16" height="20" viewBox="0 0 16 20" fill="none" xmlns="http://www.w3.org/2000/svg">
<path d="M0.5 3L5.75 0L10.25 3L14.9772 0.2987C15.1677 0.18992 15.3881 0.30749 15.4697 0.56131C15.4897 0.62355 15.5 0.69056 15.5 0.75827V17L10.25 20L5.75 17L1.02272 19.7013C0.832355 19.8101 0.611908 19.6925 0.530323 19.4387C0.510313 19.3765 0.5 19.3094 0.5 19.2417V3ZM11 17.3955L14 15.6812V3.03308L11 4.74736V17.3955ZM9.5 17.2639V4.73607L6.5 2.73607V15.2639L9.5 17.2639ZM5 15.2526V2.60451L2 4.31879V16.9669L5 15.2526Z" fill="#05408C"/>
</svg>
