<svg width="24" height="25" viewBox="0 0 24 25" fill="none" xmlns="http://www.w3.org/2000/svg">
<path d="M12.002 2.5C6.47695 2.5 2.00195 6.975 2.00195 12.5C2.00195 16.925 4.86445 20.6625 8.83945 21.9875C9.33945 22.075 9.52695 21.775 9.52695 21.5125C9.52695 21.275 9.51445 20.4875 9.51445 19.65C7.00195 20.1125 6.35195 19.0375 6.15195 18.475C6.03945 18.1875 5.55195 17.3 5.12695 17.0625C4.77695 16.875 4.27695 16.4125 5.11445 16.4C5.90195 16.3875 6.46445 17.125 6.65195 17.425C7.55195 18.9375 8.98945 18.5125 9.56445 18.25C9.65195 17.6 9.91445 17.1625 10.202 16.9125C7.97695 16.6625 5.65195 15.8 5.65195 11.975C5.65195 10.8875 6.03945 9.9875 6.67695 9.2875C6.57695 9.0375 6.22695 8.0125 6.77695 6.6375C6.77695 6.6375 7.61445 6.375 9.52695 7.6625C10.327 7.4375 11.177 7.325 12.027 7.325C12.877 7.325 13.727 7.4375 14.527 7.6625C16.4395 6.3625 17.277 6.6375 17.277 6.6375C17.827 8.0125 17.477 9.0375 17.377 9.2875C18.0145 9.9875 18.402 10.875 18.402 11.975C18.402 15.8125 16.0645 16.6625 13.8395 16.9125C14.202 17.225 14.5145 17.825 14.5145 18.7625C14.5145 20.1 14.502 21.175 14.502 21.5125C14.502 21.775 14.6895 22.0875 15.1895 21.9875C19.26 20.6133 22.0009 16.7963 22.002 12.5C22.002 6.975 17.527 2.5 12.002 2.5Z" fill="#2F2F2F"/>
</svg>
