<svg width="41" height="40" viewBox="0 0 41 40" fill="none" xmlns="http://www.w3.org/2000/svg">
<g id="Frame">
<path id="Vector" d="M17.7813 10.0312C16.2797 8.52972 16.2797 6.09526 17.7813 4.59375C19.2828 3.09223 21.7172 3.09223 23.2187 4.59375C24.7203 6.09526 24.7203 8.52972 23.2187 10.0312C21.7172 11.5328 19.2828 11.5328 17.7813 10.0312ZM30.4687 22.7187C28.9672 21.2172 28.9672 18.7827 30.4687 17.2812C31.9703 15.7797 34.4047 15.7797 35.9062 17.2812C37.4078 18.7828 37.4077 21.2172 35.9062 22.7187C34.4047 24.2202 31.9703 24.2203 30.4687 22.7187ZM17.7813 35.4062C16.2797 33.9046 16.2797 31.4703 17.7813 29.9687C19.2828 28.4671 21.7172 28.4671 23.2187 29.9687C24.7203 31.4703 24.7203 33.9046 23.2187 35.4062C21.7172 36.9078 19.2828 36.9078 17.7813 35.4062ZM5.09377 22.7187C3.59226 21.2172 3.59221 18.7828 5.09377 17.2812C6.59534 15.7797 9.02975 15.7797 10.5313 17.2812C12.0328 18.7827 12.0328 21.2172 10.5313 22.7187C9.0297 24.2203 6.59529 24.2202 5.09377 22.7187Z" fill="currentColor"/>
</g>
</svg>
