<svg width="20" height="22" viewBox="0 0 20 22" fill="none" xmlns="http://www.w3.org/2000/svg">
<path d="M18.0833 14.6998L19.2854 15.4211C19.5221 15.5632 19.5989 15.8703 19.4569 16.1071C19.4146 16.1775 19.3557 16.2364 19.2854 16.2786L10.5144 21.5411C10.1977 21.7312 9.8021 21.7312 9.4854 21.5411L0.714511 16.2786C0.477721 16.1365 0.400931 15.8294 0.543011 15.5926C0.585231 15.5222 0.644131 15.4633 0.714511 15.4211L1.9166 14.6998L9.9999 19.5498L18.0833 14.6998ZM18.0833 9.99978L19.2854 10.7211C19.5221 10.8632 19.5989 11.1703 19.4569 11.4071C19.4146 11.4775 19.3557 11.5364 19.2854 11.5786L9.9999 17.1498L0.714511 11.5786C0.477721 11.4365 0.400931 11.1294 0.543011 10.8926C0.585231 10.8222 0.644131 10.7633 0.714511 10.7211L1.9166 9.99978L9.9999 14.8498L18.0833 9.99978ZM10.5144 0.808516L19.2854 6.07108C19.5221 6.21315 19.5989 6.52028 19.4569 6.75707C19.4146 6.82745 19.3557 6.88635 19.2854 6.92857L9.9999 12.4998L0.714511 6.92857C0.477721 6.7865 0.400931 6.47937 0.543011 6.24258C0.585231 6.1722 0.644131 6.11331 0.714511 6.07108L9.4854 0.808516C9.8021 0.618516 10.1977 0.618516 10.5144 0.808516ZM9.9999 2.83221L3.88723 6.49983L9.9999 10.1675L16.1126 6.49983L9.9999 2.83221Z" fill="currentColor"/>
</svg>
