<svg width="41" height="40" viewBox="0 0 41 40" fill="none" xmlns="http://www.w3.org/2000/svg">
<g clip-path="url(#clip0_3886_51609)">
<path d="M6.91634 26.6667H33.583V8.33333H6.91634V26.6667ZM21.9163 30V33.3333H28.583V36.6667H11.9163V33.3333H18.583V30H5.23601C4.32309 30 3.58301 29.2518 3.58301 28.3208V6.67913C3.58301 5.75178 4.34186 5 5.23601 5H35.2633C36.1763 5 36.9163 5.7482 36.9163 6.67913V28.3208C36.9163 29.2482 36.1575 30 35.2633 30H21.9163Z" fill="currentColor"/>
<path d="M23.5464 23V12.4971H26.8789C27.8945 12.4971 28.6978 12.7192 29.2886 13.1636C29.8843 13.6079 30.1821 14.1865 30.1821 14.8994C30.1821 15.4951 30.0137 16.0127 29.6768 16.4521C29.3398 16.8916 28.8735 17.2041 28.2778 17.3896V17.4189C29.0005 17.502 29.5767 17.7705 30.0063 18.2246C30.4409 18.6738 30.6582 19.2598 30.6582 19.9824C30.6582 20.8809 30.3042 21.6084 29.5962 22.165C28.8882 22.7217 27.9946 23 26.9155 23H23.5464ZM25.2822 13.896V16.8843H26.4102C27.0156 16.8843 27.4893 16.7427 27.8311 16.4595C28.1777 16.1714 28.3511 15.7661 28.3511 15.2437C28.3511 14.3452 27.7505 13.896 26.5493 13.896H25.2822ZM25.2822 18.2832V21.6084H26.769C27.4185 21.6084 27.9189 21.4595 28.2705 21.1616C28.627 20.8589 28.8052 20.4438 28.8052 19.9165C28.8052 18.8276 28.0508 18.2832 26.542 18.2832H25.2822Z" fill="currentColor"/>
<path d="M18.1743 23H16.2627L15.3179 20.3267H11.187L10.2788 23H8.37451L12.3076 12.4971H14.2705L18.1743 23ZM14.8564 18.9058L13.3989 14.7163C13.355 14.5796 13.3086 14.3599 13.2598 14.0571H13.2305C13.1865 14.3354 13.1377 14.5552 13.084 14.7163L11.6411 18.9058H14.8564Z" fill="currentColor"/>
<line x1="20.25" y1="11" x2="20.25" y2="24" stroke="currentColor" stroke-width="2"/>
</g>
<defs>
<clipPath id="clip0_3886_51609">
<rect width="40" height="40" fill="white" transform="translate(0.25)"/>
</clipPath>
</defs>
</svg>
