<svg width="17" height="16" viewBox="0 0 17 16" fill="none" xmlns="http://www.w3.org/2000/svg">
<g id="Frame">
<path id="Vector" d="M8.59928 14.6673C4.91738 14.6673 1.93262 11.6825 1.93262 8.00065C1.93262 4.31875 4.91738 1.33398 8.59928 1.33398C12.2812 1.33398 15.266 4.31875 15.266 8.00065C15.266 11.6825 12.2812 14.6673 8.59928 14.6673ZM8.59928 13.334C11.5448 13.334 13.9326 10.9462 13.9326 8.00065C13.9326 5.05513 11.5448 2.66732 8.59928 2.66732C5.65376 2.66732 3.26595 5.05513 3.26595 8.00065C3.26595 10.9462 5.65376 13.334 8.59928 13.334ZM7.93262 10.0007H9.26595V11.334H7.93262V10.0007ZM9.26595 8.90405V9.33398H7.93262V8.33398C7.93262 7.96578 8.23108 7.66732 8.59928 7.66732C9.15155 7.66732 9.59928 7.21958 9.59928 6.66732C9.59928 6.11503 9.15155 5.66732 8.59928 5.66732C8.11415 5.66732 7.70968 6.0128 7.61848 6.47116L6.31082 6.20962C6.52353 5.14011 7.46728 4.33398 8.59928 4.33398C9.88795 4.33398 10.9326 5.37865 10.9326 6.66732C10.9326 7.72432 10.2298 8.61718 9.26595 8.90405Z" fill="#727272"/>
</g>
</svg>
