<svg width="17" height="17" viewBox="0 0 17 17" fill="none" xmlns="http://www.w3.org/2000/svg">
<path d="M8.50016 15.1663C4.81826 15.1663 1.8335 12.1815 1.8335 8.49967C1.8335 4.81777 4.81826 1.83301 8.50016 1.83301C12.182 1.83301 15.1668 4.81777 15.1668 8.49967C15.1668 12.1815 12.182 15.1663 8.50016 15.1663ZM8.50016 13.833C11.4457 13.833 13.8335 11.4452 13.8335 8.49967C13.8335 5.55415 11.4457 3.16634 8.50016 3.16634C5.55464 3.16634 3.16683 5.55415 3.16683 8.49967C3.16683 11.4452 5.55464 13.833 8.50016 13.833ZM7.8335 5.16634H9.16683V6.49967H7.8335V5.16634ZM7.8335 7.83301H9.16683V11.833H7.8335V7.83301Z" fill="#004F8F"/>
</svg>
