<svg width="6" height="118" viewBox="0 0 6 118" fill="none" xmlns="http://www.w3.org/2000/svg">
<path d="M6 8.5625C6 10.2194 4.65685 11.5625 3 11.5625C1.34315 11.5625 -4.46702e-07 10.2194 -3.74279e-07 8.5625L-1.31134e-07 3C-5.87108e-08 1.34315 1.34315 -2.03558e-07 3 -1.31134e-07C4.65685 -5.87108e-08 6 1.34315 6 3L6 8.5625ZM6 30.8135C6 32.4703 4.65685 33.8135 3 33.8135C1.34314 33.8135 -1.41932e-06 32.4703 -1.3469e-06 30.8135L-8.60611e-07 19.6885C-7.88187e-07 18.0316 1.34315 16.6885 3 16.6885C4.65685 16.6885 6 18.0316 6 19.6885L6 30.8135ZM6 53.0654C5.99984 54.7221 4.65675 56.0654 3 56.0654C1.34324 56.0654 0.000158302 54.7221 -2.31956e-06 53.0654L-1.83323e-06 41.9395C4.92608e-05 40.2826 1.34318 38.9395 3 38.9395C4.65682 38.9395 5.99995 40.2826 6 41.9395L6 53.0654ZM6 75.3164C5.99994 76.9732 4.65682 78.3164 3 78.3164C1.34318 78.3164 5.00412e-05 76.9732 -3.29218e-06 75.3164L-2.80585e-06 64.1904C0.000154146 62.5337 1.34324 61.1904 3 61.1904C4.65675 61.1904 5.99984 62.5337 6 64.1904L6 75.3164ZM6 97.5674C6 99.2242 4.65685 100.567 3 100.567C1.34314 100.567 -4.33723e-06 99.2242 -4.26481e-06 97.5674L-3.77852e-06 86.4424C-3.70609e-06 84.7855 1.34314 83.4424 3 83.4424C4.65685 83.4424 6 84.7855 6 86.4424L6 97.5674ZM6 114.256C5.99999 115.913 4.65685 117.256 2.99999 117.256C1.34314 117.256 -7.75171e-07 115.913 -4.99428e-06 114.256L-4.75114e-06 108.693C-4.67871e-06 107.037 1.34314 105.693 3 105.693C4.65685 105.693 6 107.037 6 108.693L6 114.256Z" fill="currentcolor"/>
</svg>
