<svg width="25" height="24" viewBox="0 0 25 24" fill="none" xmlns="http://www.w3.org/2000/svg">
<g id="page2-icon">
<path id="Vector" d="M20.7745 2C22.4314 2 23.7745 3.34315 23.7745 5V7H21.7745V19C21.7745 20.6569 20.4314 22 18.7745 22H4.77454C3.11769 22 1.77454 20.6569 1.77454 19V17H17.7745V19C17.7745 19.5128 18.1605 19.9355 18.6579 19.9933L18.7745 20C19.2873 20 19.71 19.614 19.7678 19.1166L19.7745 19V4H6.77454C6.2617 4 5.83903 4.38604 5.78127 4.88338L5.77454 5V15H3.77454V5C3.77454 3.34315 5.11769 2 6.77454 2H20.7745Z" fill="currentColor" fill-opacity="0.8"/>
</g>
</svg>
