<svg width="13" height="13" viewBox="0 0 13 13" fill="none" xmlns="http://www.w3.org/2000/svg">
<path d="M5.46875 9.30417L9.8 4.97292L8.58958 3.74792L5.46875 6.86875L3.98125 5.38125L2.77083 6.60625L5.46875 9.30417ZM6.32917 12.6583C5.44444 12.6583 4.61812 12.4926 3.85018 12.1613C3.08225 11.8299 2.41425 11.3802 1.84619 10.8121C1.27813 10.2441 0.828421 9.57608 0.497052 8.80815C0.165684 8.04022 0 7.21389 0 6.32917C0 5.44444 0.165684 4.61812 0.497052 3.85018C0.828421 3.08225 1.27813 2.41425 1.84619 1.84619C2.41425 1.27813 3.08225 0.828421 3.85018 0.497053C4.61812 0.165684 5.44444 0 6.32917 0C7.21389 0 8.04022 0.165684 8.80815 0.497053C9.57608 0.828421 10.2441 1.27813 10.8121 1.84619C11.3802 2.41425 11.8299 3.08225 12.1613 3.85018C12.4926 4.61812 12.6583 5.44444 12.6583 6.32917C12.6583 7.21389 12.4926 8.04022 12.1613 8.80815C11.8299 9.57608 11.3802 10.2441 10.8121 10.8121C10.2441 11.3802 9.57608 11.8299 8.80815 12.1613C8.04022 12.4926 7.21389 12.6583 6.32917 12.6583ZM6.32917 10.8208C7.59306 10.8208 8.65764 10.3882 9.52292 9.52292C10.3882 8.65764 10.8208 7.59306 10.8208 6.32917C10.8208 5.06528 10.3882 4.00069 9.52292 3.13542C8.65764 2.27014 7.59306 1.8375 6.32917 1.8375C5.06528 1.8375 4.00069 2.27014 3.13542 3.13542C2.27014 4.00069 1.8375 5.06528 1.8375 6.32917C1.8375 7.59306 2.27014 8.65764 3.13542 9.52292C4.00069 10.3882 5.06528 10.8208 6.32917 10.8208Z" fill="#404751"/>
</svg>
