<svg width="11" height="19" viewBox="0 0 11 19" fill="none" xmlns="http://www.w3.org/2000/svg">
<path id="Vector" d="M1.24865 18.4998C0.889579 18.4998 0.533632 18.3472 0.286967 18.0482C-0.153282 17.5187 -0.0783464 16.7338 0.452451 16.2946L8.3426 9.77237C8.3426 9.77237 8.36758 9.75057 8.38319 9.74123C8.48311 9.66647 8.50184 9.56992 8.50184 9.50139C8.50184 9.43287 8.47999 9.33631 8.38319 9.26156C8.3707 9.25221 8.35509 9.23976 8.3426 9.23041L0.452451 2.70506C-0.0783464 2.26588 -0.153282 1.48097 0.286967 0.95147C0.727217 0.421967 1.51405 0.347213 2.04484 0.78639L9.91626 7.29617C10.6032 7.82878 10.9966 8.62927 10.9966 9.50139C10.9966 10.3704 10.6032 11.174 9.91626 11.7066L2.04484 18.2133C1.81067 18.4064 1.52966 18.4998 1.24865 18.4998Z" fill="#1093FF"/>
</svg>
