<svg width="16" height="16" viewBox="0 0 16 16" fill="none" xmlns="http://www.w3.org/2000/svg">
<path d="M7.25 14C7.25 14.4142 7.58579 14.75 8 14.75C8.41421 14.75 8.75 14.4142 8.75 14L8 14L7.25 14ZM8.53033 1.46967C8.23744 1.17678 7.76256 1.17678 7.46967 1.46967L2.6967 6.24264C2.40381 6.53553 2.40381 7.01041 2.6967 7.3033C2.98959 7.59619 3.46447 7.59619 3.75736 7.3033L8 3.06066L12.2426 7.3033C12.5355 7.59619 13.0104 7.59619 13.3033 7.3033C13.5962 7.01041 13.5962 6.53553 13.3033 6.24264L8.53033 1.46967ZM8 14L8.75 14L8.75 2L8 2L7.25 2L7.25 14L8 14Z" fill="currentcolor"/>
</svg>
