<svg width="32" height="32" viewBox="0 0 32 32" fill="none" xmlns="http://www.w3.org/2000/svg">
<rect width="32" height="32" rx="6" fill="currentcolor"/>
<path d="M9 8.97002C8.99994 8.8026 9.04603 8.63801 9.13378 8.49228C9.22152 8.34655 9.34794 8.22465 9.50072 8.13844C9.65351 8.05223 9.82745 8.00464 10.0056 8.00032C10.1838 7.996 10.3601 8.03509 10.5174 8.11378L23.8005 14.7436C23.9659 14.8262 24.1043 14.9495 24.2008 15.1004C24.2973 15.2512 24.3483 15.4239 24.3483 15.5998C24.3483 15.7758 24.2973 15.9485 24.2008 16.0993C24.1043 16.2502 23.9659 16.3735 23.8005 16.4561L10.5164 23.0859C10.359 23.1644 10.1827 23.2033 10.0046 23.1988C9.82651 23.1943 9.65267 23.1466 9.50002 23.0603C9.34736 22.974 9.22107 22.8521 9.13345 22.7063C9.04583 22.5606 8.99986 22.3961 9 22.2287V17.8592C8.99998 17.633 9.08417 17.4139 9.238 17.2398C9.39182 17.0657 9.6056 16.9476 9.84232 16.906L17.2581 15.5998L9.84232 14.2937C9.6056 14.252 9.39182 14.134 9.238 13.9599C9.08417 13.7858 8.99998 13.5667 9 13.3404V8.97002Z" fill="white"/>
</svg>
