<svg width="52" height="52" viewBox="0 0 52 52" fill="none" xmlns="http://www.w3.org/2000/svg">
<path d="M24.5732 6.00879C25.0223 4.62682 26.9777 4.62683 27.4268 6.00879L30.9131 16.7383C31.2478 17.7681 32.2072 18.4656 33.29 18.4658H44.5723C46.0251 18.466 46.6291 20.3245 45.4541 21.1787L36.3271 27.8105C35.4509 28.4472 35.0843 29.5754 35.4189 30.6055L38.9043 41.335C39.3533 42.7169 37.7722 43.8658 36.5967 43.0117L27.4697 36.3809C26.5935 35.7442 25.4065 35.7442 24.5303 36.3809L15.4033 43.0117C14.2277 43.8658 12.6467 42.7169 13.0957 41.335L16.5811 30.6055C16.9157 29.5754 16.5491 28.4472 15.6729 27.8105L6.5459 21.1787C5.37089 20.3245 5.97493 18.466 7.42773 18.4658H18.71C19.7928 18.4656 20.7522 17.7681 21.0869 16.7383L24.5732 6.00879Z" fill="#E9E9E9" stroke="#DCDCDC"/>
</svg>
