<svg width="25" height="24" viewBox="0 0 25 24" fill="none" xmlns="http://www.w3.org/2000/svg">
<g id="star 1" clip-path="url(#clip0_4831_73106)">
<g id="Layer 1">
<path id="Vector" d="M22.7749 11.9996C13.1795 11.9996 12.3337 11.1802 12.3337 1.91406C12.3337 11.1821 11.4841 11.9996 1.89258 11.9996C11.4879 11.9996 12.3337 12.819 12.3337 22.0851C12.3337 12.8171 13.1814 11.9996 22.7749 11.9996Z" fill="#FFD000"/>
<path id="Vector_2" d="M12.3334 1.91449C12.3334 11.1806 13.1773 12 22.7745 12C13.1811 12 12.3334 12.8156 12.3334 22.0855C12.3334 12.8194 11.4895 12 1.89226 12C11.4838 12 12.3334 11.1844 12.3334 1.91449ZM12.3334 0C11.2889 0 10.4412 0.85769 10.4412 1.91449C10.4412 5.89087 10.2766 8.20549 9.40427 9.04786C8.5017 9.91895 6.06833 10.0855 1.89415 10.0855C0.849657 10.0855 0.00195312 10.9432 0.00195312 12C0.00195312 13.0568 0.849657 13.9145 1.89415 13.9145C6.07023 13.9145 8.50359 14.0791 9.40617 14.9521C10.2766 15.7945 10.4431 18.1091 10.4431 22.0855C10.4431 23.1423 11.2908 24 12.3353 24C13.3798 24 14.2275 23.1423 14.2275 22.0855C14.2275 18.1091 14.3921 15.7945 15.2644 14.9521C16.167 14.081 18.6003 13.9145 22.7764 13.9145C23.8209 13.9145 24.6686 13.0568 24.6686 12C24.6686 10.9432 23.8209 10.0855 22.7764 10.0855C18.6003 10.0855 16.167 9.92087 15.2644 9.04786C14.394 8.20549 14.2275 5.89087 14.2275 1.91449C14.2275 0.85769 13.3798 0 12.3353 0L12.3334 0Z" fill="#1093FF"/>
</g>
</g>
<defs>
<clipPath id="clip0_4831_73106">
<rect width="25" height="24" fill="white"/>
</clipPath>
</defs>
</svg>
