<svg width="42" height="40" viewBox="0 0 42 40" fill="none" xmlns="http://www.w3.org/2000/svg">
<path d="M18.6741 1.38536C19.2728 -0.457265 21.8796 -0.45727 22.4783 1.38535L25.9645 12.1148C26.2323 12.9389 27.0002 13.4968 27.8666 13.4968H39.1483C41.0857 13.4968 41.8913 15.976 40.3238 17.1148L31.1968 23.746C30.4958 24.2553 30.2025 25.1581 30.4703 25.9821L33.9565 36.7116C34.5552 38.5542 32.4462 40.0865 30.8788 38.9477L21.7517 32.3165C21.0508 31.8072 20.1016 31.8072 19.4006 32.3165L10.2736 38.9477C8.70613 40.0865 6.59716 38.5542 7.19587 36.7116L10.6821 25.9821C10.9498 25.1581 10.6565 24.2553 9.95555 23.746L0.828501 17.1148C-0.738926 15.976 0.0666227 13.4968 2.00407 13.4968H13.2857C14.1522 13.4968 14.9201 12.9389 15.1878 12.1148L18.6741 1.38536Z" fill="currentcolor"/>
</svg>
