<svg width="42" height="40" viewBox="0 0 42 40" fill="none" xmlns="http://www.w3.org/2000/svg">
<path d="M19.1494 1.54004C19.5984 0.15807 21.5539 0.158076 22.0029 1.54004L25.4893 12.2695C25.824 13.2993 26.7834 13.9969 27.8662 13.9971H39.1484C40.6012 13.9972 41.2053 15.8558 40.0303 16.71L30.9033 23.3418C30.0271 23.9784 29.6604 25.1067 29.9951 26.1367L33.4805 36.8662C33.9295 38.2482 32.3484 39.397 31.1729 38.543L22.0459 31.9121C21.1697 31.2755 19.9827 31.2755 19.1064 31.9121L9.97949 38.543C8.80392 39.397 7.22285 38.2482 7.67188 36.8662L11.1572 26.1367C11.4919 25.1067 11.1252 23.9784 10.249 23.3418L1.12207 16.71C-0.0529349 15.8558 0.551102 13.9972 2.00391 13.9971H13.2861C14.3689 13.9969 15.3284 13.2993 15.6631 12.2695L19.1494 1.54004Z" fill="currentcolor" stroke="#DCDCDC"/>
</svg>
