<svg width="34" height="29" viewBox="0 0 34 29" fill="none" xmlns="http://www.w3.org/2000/svg">
<path d="M31 10V7.27273C31 5.61587 29.6569 4.27273 28 4.27273H15.7003C14.7063 4.27273 13.7768 3.78035 13.2184 2.95798L12.7816 2.31475C12.2232 1.49238 11.2937 1 10.2997 1H6C4.34315 1 3 2.34315 3 4V10" stroke="#666666" stroke-width="1.5" stroke-linecap="round" stroke-linejoin="round"/>
<path d="M1.07408 12.1795C0.964696 11.4256 1.54934 10.75 2.31113 10.75H31.6889C32.4507 10.75 33.0353 11.4256 32.9259 12.1795L30.7495 27.1795C30.6604 27.7941 30.1335 28.25 29.5125 28.25H4.48751C3.86649 28.25 3.33964 27.7941 3.25047 27.1795L1.07408 12.1795Z" stroke="#666666" stroke-width="1.5" stroke-linecap="round" stroke-linejoin="round"/>
<path d="M12.8647 16.3018L11.4863 17.6802L10.108 19.0586L12.8647 21.8153" stroke="#666666" stroke-width="1.5" stroke-linecap="round"/>
<path d="M20.2163 16.3018L21.5947 17.6802L22.9731 19.0586L20.2163 21.8153" stroke="#666666" stroke-width="1.5" stroke-linecap="round"/>
<line x1="18.0052" y1="14.4544" x2="15.6122" y2="24.0262" stroke="#666666" stroke-width="1.5" stroke-linecap="round"/>
</svg>
