<svg width="16" height="16" viewBox="0 0 16 16" fill="none" xmlns="http://www.w3.org/2000/svg">
<path d="M3.38807 3.56263C2.28081 4.71318 1.6 6.27709 1.6 8C1.6 11.5346 4.46538 14.4 8 14.4C8.86464 14.4 9.68928 14.2286 10.4417 13.9178C10.5337 13.3174 10.3318 12.7413 10.2493 12.5397C10.0656 12.092 9.45928 11.3266 8.44712 10.2646C8.17696 9.98064 8.19432 9.7628 8.29088 9.11544L8.302 9.04232C8.3676 8.59888 8.47768 8.33672 9.96976 8.09984C10.7278 7.97968 10.9271 8.28264 11.2034 8.70216C11.234 8.74864 11.2646 8.79424 11.2958 8.83992C11.5583 9.22376 11.7528 9.31152 12.0466 9.44512C12.1782 9.5048 12.3424 9.58008 12.5625 9.70512C13.0841 10.0032 13.0841 10.3398 13.0841 11.0778V11.1614C13.0841 11.4747 13.0534 11.7498 13.0053 11.9887C13.8782 10.8948 14.4 9.50832 14.4 8C14.4 5.36071 12.8024 3.09456 10.5215 2.11586C10.079 2.4145 9.47184 2.83781 9.26 3.128C9.15168 3.2763 8.99856 4.03333 8.50056 4.09581C8.37008 4.11218 8.19504 4.10071 8.0096 4.08878C7.5124 4.05646 6.83216 4.01285 6.6144 4.60396C6.47616 4.97856 6.45184 5.99556 6.89912 6.52344C6.97072 6.60776 6.98456 6.76376 6.93592 6.9388C6.872 7.16864 6.74288 7.30848 6.70264 7.33736C6.62552 7.29304 6.47168 7.11448 6.3675 6.99296C6.11643 6.7012 5.80324 6.33786 5.39838 6.22541C5.25116 6.18466 5.08933 6.15094 4.93238 6.11789C4.49312 6.02582 3.99554 5.92107 3.87994 5.67442C3.79554 5.49376 3.7959 5.24497 3.79623 4.98211C3.79623 4.64896 3.79623 4.27223 3.63303 3.90605C3.56997 3.76433 3.48551 3.65157 3.38807 3.56263ZM8 16C3.58172 16 0 12.4182 0 8C0 3.58172 3.58172 0 8 0C12.4182 0 16 3.58172 16 8C16 12.4182 12.4182 16 8 16Z" fill="#505050"/>
</svg>
