<svg width="150" height="151" viewBox="0 0 150 151" fill="none" xmlns="http://www.w3.org/2000/svg">
<g clip-path="url(#clip0_1294_2808)">
<path d="M74.3781 88.2642C62.454 88.2642 52.7856 90.9655 52.7856 99.6243C52.7856 108.283 62.454 119.616 74.3781 119.616C86.3021 119.616 95.9705 108.283 95.9705 99.6243C95.9705 90.9655 86.3021 88.2642 74.3781 88.2642Z" fill="#50B8FF"/>
<path d="M46.346 75.5396C52.6954 75.5396 57.8426 70.3924 57.8426 64.043C57.8426 57.6936 52.6954 52.5464 46.346 52.5464C39.9966 52.5464 34.8494 57.6936 34.8494 64.043C34.8494 70.3924 39.9966 75.5396 46.346 75.5396Z" fill="#50B8FF"/>
<path d="M56.9603 85.9176C58.5884 85.1809 60.4165 84.5897 62.4539 84.1349C61.7809 83.4528 61.1715 82.7161 60.6257 81.9248C56.8148 80.4695 51.8214 79.8965 46.3369 79.8965C34.4128 79.8965 24.7444 82.5978 24.7444 91.2566C24.7444 99.9155 34.4128 111.248 46.3369 111.248C47.8831 111.248 49.3929 111.057 50.8482 110.703C48.729 107.092 47.5375 103.226 47.5375 99.6244C47.5375 93.5123 50.8846 88.6463 56.9512 85.9176H56.9603Z" fill="#50B8FF"/>
<path d="M102.41 75.5396C108.759 75.5396 113.907 70.3924 113.907 64.043C113.907 57.6936 108.759 52.5464 102.41 52.5464C96.0606 52.5464 90.9135 57.6936 90.9135 64.043C90.9135 70.3924 96.0606 75.5396 102.41 75.5396Z" fill="#50B8FF"/>
<path d="M102.41 79.9053C96.9256 79.9053 91.9322 80.4783 88.1212 81.9335C87.5755 82.7158 86.9661 83.4616 86.293 84.1437C88.3304 84.5985 90.1586 85.1897 91.7867 85.9264C97.8624 88.655 101.2 93.5302 101.2 99.6332C101.2 103.262 99.9907 107.119 97.8715 110.711C99.3358 111.066 100.846 111.257 102.401 111.257C114.325 111.257 123.993 99.9243 123.993 91.2654C123.993 82.6066 114.325 79.9053 102.401 79.9053H102.41Z" fill="#50B8FF"/>
<path d="M36.8049 40.5315C37.7781 41.2591 38.9787 41.7048 40.2885 41.7048C43.5264 41.7048 46.1459 39.0853 46.1459 35.8474C46.1459 35.5927 46.1004 35.3471 46.0731 35.0925C55.405 30.6448 64.9461 29.9445 74.1597 31.9182C67.6656 36.9206 63.7637 40.7771 60.0528 47.3167L61.881 48.7447C67.5292 42.8054 72.6499 38.1667 80.5538 33.7191C86.8478 35.9201 92.9236 39.2945 98.5991 43.4784C101.046 45.2793 102.565 46.398 104.848 48.4081L105.757 47.3622C98.9356 40.0222 94.0878 35.8929 84.8468 31.5816C91.2682 28.8348 97.9533 28.0253 104.393 30.8449C104.811 33.6645 107.222 35.8383 110.159 35.8383C110.641 35.8383 111.105 35.7655 111.551 35.6564C116.299 39.8403 118.736 41.7503 122.402 47.3803L123.648 46.6072C121.465 40.3587 119.991 37.8484 115.298 32.7368C115.744 31.9091 116.017 30.9904 116.017 29.9899C116.017 26.752 113.397 24.1325 110.159 24.1325C108.622 24.1325 107.231 24.7419 106.185 25.706C96.9983 21.2947 87.0661 23.5595 78.3254 29.0167C74.3598 27.7525 70.2487 26.9612 66.0103 26.7702C58.3883 26.3882 50.8755 28.1345 44.0994 31.4452C43.0717 30.5539 41.7437 29.999 40.2794 29.999C37.0414 29.999 34.4219 32.6185 34.4219 35.8565C34.4219 36.4113 34.522 36.9479 34.6675 37.4573C30.2472 41.0136 29.2467 42.0232 26.2634 46.8164L27.2821 48.1444C30.9475 44.2515 32.4482 43.5694 36.7958 40.5406L36.8049 40.5315Z" fill="#50B8FF"/>
<path d="M85.0924 59.9409H82.8913L85.0015 57.8307C85.4563 57.376 85.4563 56.6483 85.0015 56.1936L84.0465 55.2385C83.5917 54.7838 82.8641 54.7838 82.4093 55.2385L78.2345 59.4133C78.0799 59.5679 77.998 59.7499 77.9525 59.9409H71.0037C70.9491 59.7499 70.8763 59.5589 70.7217 59.4133L66.5469 55.2385C66.0921 54.7838 65.3645 54.7838 64.9097 55.2385L63.9547 56.1936C63.5 56.6483 63.5 57.376 63.9547 57.8307L66.0649 59.9409H63.8638C62.0083 59.9409 60.5076 61.4416 60.5076 63.2971V75.3485C60.5076 77.2039 62.0083 78.7047 63.8638 78.7047H85.0742C86.9297 78.7047 88.4305 77.2039 88.4305 75.3485V63.2971C88.4305 61.4416 86.9297 59.9409 85.0742 59.9409H85.0924ZM68.4933 71.9013C67.0745 71.9013 65.9193 70.7462 65.9193 69.3273C65.9193 67.9084 67.0745 66.7533 68.4933 66.7533C69.9122 66.7533 71.0673 67.9084 71.0673 69.3273C71.0673 70.7462 69.9122 71.9013 68.4933 71.9013ZM80.4811 71.9013C79.0622 71.9013 77.9071 70.7462 77.9071 69.3273C77.9071 67.9084 79.0622 66.7533 80.4811 66.7533C81.9 66.7533 83.0551 67.9084 83.0551 69.3273C83.0551 70.7462 81.9 71.9013 80.4811 71.9013Z" fill="#50B8FF"/>
</g>
<path d="M43.8984 146H41.0859L40.1797 143.227H35.7812L34.8906 146H32.0938L36.5234 133.898H39.5547L43.8984 146ZM39.5703 141.234L38.1953 137.039C38.1068 136.773 38.0443 136.422 38.0078 135.984H37.9375C37.9062 136.339 37.8359 136.68 37.7266 137.008L36.3438 141.234H39.5703ZM45.1406 146V133.211H47.6562V146H45.1406ZM49.6875 134.57C49.6875 134.185 49.8229 133.872 50.0938 133.633C50.3698 133.388 50.7214 133.266 51.1484 133.266C51.5859 133.266 51.9401 133.391 52.2109 133.641C52.4818 133.885 52.6172 134.195 52.6172 134.57C52.6172 134.951 52.4792 135.268 52.2031 135.523C51.9271 135.773 51.5755 135.898 51.1484 135.898C50.7266 135.898 50.3776 135.771 50.1016 135.516C49.8255 135.26 49.6875 134.945 49.6875 134.57ZM49.875 146V137.359H52.3906V146H49.875ZM63 145.047C63 146.651 62.5417 147.885 61.625 148.75C60.7135 149.62 59.3984 150.055 57.6797 150.055C56.513 150.055 55.5859 149.888 54.8984 149.555V147.398C55.7943 147.919 56.6979 148.18 57.6094 148.18C58.5104 148.18 59.2135 147.938 59.7188 147.453C60.2292 146.974 60.4844 146.307 60.4844 145.453V144.734H60.4453C59.8359 145.719 58.9297 146.211 57.7266 146.211C56.638 146.211 55.7656 145.823 55.1094 145.047C54.4583 144.271 54.1328 143.232 54.1328 141.93C54.1328 140.477 54.4922 139.318 55.2109 138.453C55.9349 137.583 56.8828 137.148 58.0547 137.148C59.1172 137.148 59.9141 137.562 60.4453 138.391H60.4844V137.359H63V145.047ZM60.5078 141.125C60.5078 140.552 60.3333 140.07 59.9844 139.68C59.6406 139.284 59.2057 139.086 58.6797 139.086C58.0651 139.086 57.5781 139.328 57.2188 139.812C56.8646 140.292 56.6875 140.966 56.6875 141.836C56.6875 142.591 56.8594 143.188 57.2031 143.625C57.5469 144.057 58.0026 144.273 58.5703 144.273C59.1432 144.273 59.6094 144.052 59.9688 143.609C60.3281 143.167 60.5078 142.591 60.5078 141.883V141.125ZM73.5 146H70.9922V141.18C70.9922 139.784 70.4896 139.086 69.4844 139.086C69.0052 139.086 68.6068 139.273 68.2891 139.648C67.9714 140.018 67.8125 140.492 67.8125 141.07V146H65.2891V137.359H67.8125V138.734H67.8438C68.474 137.677 69.401 137.148 70.625 137.148C72.5417 137.148 73.5 138.336 73.5 140.711V146ZM89.2188 146H86.7031V141.07C86.7031 139.747 86.2214 139.086 85.2578 139.086C84.8099 139.086 84.4375 139.286 84.1406 139.688C83.8438 140.089 83.6953 140.578 83.6953 141.156V146H81.1797V141.008C81.1797 139.727 80.7031 139.086 79.75 139.086C79.276 139.086 78.8958 139.279 78.6094 139.664C78.3281 140.044 78.1875 140.549 78.1875 141.18V146H75.6641V137.359H78.1875V138.711H78.2188C78.5208 138.216 78.9219 137.833 79.4219 137.562C79.9219 137.286 80.4479 137.148 81 137.148C82.2135 137.148 83.0443 137.693 83.4922 138.781C84.1589 137.693 85.1276 137.148 86.3984 137.148C88.2786 137.148 89.2188 138.31 89.2188 140.633V146ZM99.0547 142.391H93.3672C93.4557 143.729 94.263 144.398 95.7891 144.398C96.7422 144.398 97.5833 144.164 98.3125 143.695V145.547C97.526 145.99 96.4948 146.211 95.2188 146.211C93.8438 146.211 92.7734 145.823 92.0078 145.047C91.2474 144.271 90.8672 143.19 90.8672 141.805C90.8672 140.424 91.2734 139.305 92.0859 138.445C92.8984 137.581 93.9193 137.148 95.1484 137.148C96.3724 137.148 97.3281 137.521 98.0156 138.266C98.7083 139.005 99.0547 140.023 99.0547 141.32V142.391ZM96.7031 140.812C96.7031 139.521 96.1797 138.875 95.1328 138.875C94.7005 138.875 94.3177 139.052 93.9844 139.406C93.651 139.76 93.4427 140.229 93.3594 140.812H96.7031ZM108.906 146H106.398V141.18C106.398 139.784 105.896 139.086 104.891 139.086C104.411 139.086 104.013 139.273 103.695 139.648C103.378 140.018 103.219 140.492 103.219 141.07V146H100.695V137.359H103.219V138.734H103.25C103.88 137.677 104.807 137.148 106.031 137.148C107.948 137.148 108.906 138.336 108.906 140.711V146ZM116.156 145.898C115.776 146.107 115.201 146.211 114.43 146.211C112.596 146.211 111.68 145.247 111.68 143.32V139.242H110.258V137.359H111.68V135.461L114.188 134.742V137.359H116.156V139.242H114.188V142.883C114.188 143.805 114.552 144.266 115.281 144.266C115.562 144.266 115.854 144.182 116.156 144.016V145.898Z" fill="#1093FF"/>
<defs>
<clipPath id="clip0_1294_2808">
<rect width="101.25" height="98.2576" fill="white" transform="translate(24.035 22.8862)"/>
</clipPath>
</defs>
</svg>
