<svg width="150" height="150" viewBox="0 0 150 150" fill="none" xmlns="http://www.w3.org/2000/svg">
<g clip-path="url(#clip0_1294_2902)">
<path d="M120.272 34.7269C120.272 39.8007 107.624 43.8801 92.0408 43.8801C76.4571 43.8801 63.8099 39.8007 63.8099 34.7269C63.8099 29.6532 76.4571 25.5737 92.0408 25.5737C107.624 25.5737 120.272 29.6532 120.272 34.7269Z" fill="#50B8FF"/>
<path d="M57.9092 104.161C46.8324 104.161 34.5848 102.005 29.6783 97.3403V108.928C29.6783 114.002 42.3255 118.109 57.9092 118.109C73.4928 118.109 86.14 113.993 86.14 108.928V97.3403C81.2335 101.996 68.9859 104.161 57.9092 104.161Z" fill="#50B8FF"/>
<path d="M92.0408 77.7334C90.7306 77.7334 89.5225 77.7055 88.3517 77.6497V91.57C89.5597 91.6258 90.777 91.6536 92.0408 91.6536C107.624 91.6536 120.272 87.537 120.272 82.4726V70.894C115.365 75.5682 103.118 77.7334 92.0408 77.7334Z" fill="#50B8FF"/>
<path d="M65.5477 87.6762C63.0015 87.9085 60.4275 88.0293 57.8999 88.0293C46.8232 88.0293 34.5755 85.8734 29.6691 81.2085V92.7964C29.6691 93.0101 29.6969 93.261 29.762 93.4747C30.8399 98.2046 43.0225 101.95 57.8999 101.95C72.7773 101.95 84.9506 98.2046 86.0378 93.4747C86.1029 93.261 86.1307 93.0101 86.1307 92.7964V81.1899C82.1628 84.9348 73.4928 86.9885 65.5477 87.6762Z" fill="#50B8FF"/>
<path d="M80.5273 69.0635C76.7174 70.5503 71.8295 71.6097 66.3747 72.1487C65.5942 72.2416 64.7764 72.3066 63.9401 72.3438C62.0909 72.4925 60.1115 72.5668 57.8999 72.5668C46.2284 72.5668 34.4454 70.2437 29.6691 65.7554V76.6556C29.6691 76.8693 29.6969 77.1202 29.762 77.3339C30.8399 82.0638 43.0225 85.8087 57.8999 85.8087C60.4647 85.8087 62.9736 85.6879 65.3525 85.4649C76.6709 84.4799 85.1457 81.2275 86.0378 77.3339C86.1029 77.1202 86.1307 76.8693 86.1307 76.6556V65.774C84.8298 66.9913 82.962 68.0971 80.5273 69.0728V69.0635Z" fill="#50B8FF"/>
<path d="M92.0408 46.101C80.3693 46.101 68.5863 43.7779 63.8099 39.2896V50.0039C63.8099 50.0039 63.875 50.0039 63.9122 50.0039C64.2374 50.0039 64.5255 50.0411 64.7764 50.0782C75.8903 50.9239 84.2536 53.786 87.1529 57.7446C87.506 58.2278 87.7755 58.7203 87.9706 59.2314C89.2902 59.2965 90.6469 59.3336 92.0408 59.3336C106.909 59.3336 119.091 55.6259 120.179 50.8588C120.244 50.6451 120.272 50.4221 120.272 50.1805V39.2803C115.495 43.7686 103.712 46.0917 92.0408 46.0917V46.101Z" fill="#50B8FF"/>
<path d="M92.0408 61.5546C90.7863 61.5546 89.5597 61.5267 88.3517 61.471V75.4284C89.5597 75.4842 90.777 75.512 92.0408 75.512C106.909 75.512 119.092 71.7671 120.179 67.0093C120.244 66.7956 120.272 66.5726 120.272 66.331V54.7524C115.365 59.408 103.118 61.5639 92.0408 61.5639V61.5546Z" fill="#50B8FF"/>
<path d="M86.14 61.1928C86.14 63.3858 83.724 65.4023 79.7096 67.0099C76.2156 68.3666 71.5135 69.426 66.1331 69.9464C65.3897 70.0393 64.6184 70.1044 63.81 70.1322C61.8957 70.2902 59.9443 70.346 57.8999 70.346C42.3163 70.346 29.6691 66.2294 29.6691 61.1928C29.6691 56.1562 42.3163 52.0117 57.8999 52.0117C59.9443 52.0117 61.8864 52.0768 63.81 52.2254C64.0609 52.2254 64.3025 52.2533 64.5534 52.2905C74.8495 53.0618 82.9155 55.7195 85.3594 59.0648C85.852 59.7431 86.1307 60.4587 86.1307 61.2021L86.14 61.1928Z" fill="#50B8FF"/>
</g>
<path d="M42.3984 146V133.898H46.5781C50.875 133.898 53.0234 135.865 53.0234 139.797C53.0234 141.667 52.4219 143.169 51.2188 144.305C50.0156 145.435 48.4635 146 46.5625 146H42.3984ZM44.9766 136.008V143.891H46.3828C47.6068 143.891 48.5677 143.526 49.2656 142.797C49.9635 142.068 50.3125 141.081 50.3125 139.836C50.3125 138.633 49.9479 137.695 49.2188 137.023C48.4896 136.346 47.5417 136.008 46.375 136.008H44.9766ZM55.0312 137.883C55.4219 137.664 55.9427 137.487 56.5938 137.352C57.25 137.216 57.8099 137.148 58.2734 137.148C60.6901 137.148 61.8984 138.359 61.8984 140.781V146H59.5V144.742H59.4688C58.8802 145.721 58.0182 146.211 56.8828 146.211C56.0651 146.211 55.4089 145.979 54.9141 145.516C54.4245 145.047 54.1797 144.411 54.1797 143.609C54.1797 141.953 55.1667 140.99 57.1406 140.719L59.5156 140.398C59.5156 139.393 58.9922 138.891 57.9453 138.891C56.9141 138.891 55.9427 139.203 55.0312 139.828V137.883ZM57.8828 142.086C56.9714 142.206 56.5156 142.617 56.5156 143.32C56.5156 143.643 56.625 143.904 56.8438 144.102C57.0677 144.299 57.3672 144.398 57.7422 144.398C58.2578 144.398 58.6823 144.216 59.0156 143.852C59.349 143.487 59.5156 143.034 59.5156 142.492V141.875L57.8828 142.086ZM69.1562 145.898C68.776 146.107 68.2005 146.211 67.4297 146.211C65.5964 146.211 64.6797 145.247 64.6797 143.32V139.242H63.2578V137.359H64.6797V135.461L67.1875 134.742V137.359H69.1562V139.242H67.1875V142.883C67.1875 143.805 67.5521 144.266 68.2812 144.266C68.5625 144.266 68.8542 144.182 69.1562 144.016V145.898ZM70.9062 137.883C71.2969 137.664 71.8177 137.487 72.4688 137.352C73.125 137.216 73.6849 137.148 74.1484 137.148C76.5651 137.148 77.7734 138.359 77.7734 140.781V146H75.375V144.742H75.3438C74.7552 145.721 73.8932 146.211 72.7578 146.211C71.9401 146.211 71.2839 145.979 70.7891 145.516C70.2995 145.047 70.0547 144.411 70.0547 143.609C70.0547 141.953 71.0417 140.99 73.0156 140.719L75.3906 140.398C75.3906 139.393 74.8672 138.891 73.8203 138.891C72.7891 138.891 71.8177 139.203 70.9062 139.828V137.883ZM73.7578 142.086C72.8464 142.206 72.3906 142.617 72.3906 143.32C72.3906 143.643 72.5 143.904 72.7188 144.102C72.9427 144.299 73.2422 144.398 73.6172 144.398C74.1328 144.398 74.5573 144.216 74.8906 143.852C75.224 143.487 75.3906 143.034 75.3906 142.492V141.875L73.7578 142.086ZM79.7188 143.68C80.5833 144.206 81.4297 144.469 82.2578 144.469C83.2995 144.469 83.8203 144.19 83.8203 143.633C83.8203 143.237 83.3906 142.906 82.5312 142.641C81.4583 142.307 80.7214 141.938 80.3203 141.531C79.9193 141.12 79.7188 140.565 79.7188 139.867C79.7188 139.018 80.0625 138.354 80.75 137.875C81.4375 137.391 82.3385 137.148 83.4531 137.148C84.2448 137.148 85.0078 137.266 85.7422 137.5V139.484C85.0703 139.089 84.3307 138.891 83.5234 138.891C83.1224 138.891 82.7995 138.964 82.5547 139.109C82.3099 139.25 82.1875 139.438 82.1875 139.672C82.1875 140.068 82.5521 140.388 83.2812 140.633C84.0625 140.893 84.6484 141.13 85.0391 141.344C85.4349 141.557 85.7344 141.839 85.9375 142.188C86.1458 142.536 86.25 142.94 86.25 143.398C86.25 144.289 85.8932 144.982 85.1797 145.477C84.4661 145.966 83.513 146.211 82.3203 146.211C81.3828 146.211 80.5156 146.062 79.7188 145.766V143.68ZM95.5234 142.391H89.8359C89.9245 143.729 90.7318 144.398 92.2578 144.398C93.2109 144.398 94.0521 144.164 94.7812 143.695V145.547C93.9948 145.99 92.9635 146.211 91.6875 146.211C90.3125 146.211 89.2422 145.823 88.4766 145.047C87.7161 144.271 87.3359 143.19 87.3359 141.805C87.3359 140.424 87.7422 139.305 88.5547 138.445C89.3672 137.581 90.388 137.148 91.6172 137.148C92.8411 137.148 93.7969 137.521 94.4844 138.266C95.1771 139.005 95.5234 140.023 95.5234 141.32V142.391ZM93.1719 140.812C93.1719 139.521 92.6484 138.875 91.6016 138.875C91.1693 138.875 90.7865 139.052 90.4531 139.406C90.1198 139.76 89.9115 140.229 89.8281 140.812H93.1719ZM102.25 145.898C101.87 146.107 101.294 146.211 100.523 146.211C98.6901 146.211 97.7734 145.247 97.7734 143.32V139.242H96.3516V137.359H97.7734V135.461L100.281 134.742V137.359H102.25V139.242H100.281V142.883C100.281 143.805 100.646 144.266 101.375 144.266C101.656 144.266 101.948 144.182 102.25 144.016V145.898Z" fill="#1093FF"/>
<defs>
<clipPath id="clip0_1294_2902">
<rect width="91.95" height="93.8922" fill="white" transform="translate(29 25.5737)"/>
</clipPath>
</defs>
</svg>
